<mxfile host="app.diagrams.net" modified="2023-03-05T18:18:47.767Z" agent="5.0 (Windows)" etag="Dgj-z2DJGecHrSIKryKE" version="21.0.2" type="github">
  <diagram name="Seite-1" id="1WHW8sM8B_PwQB8c2t80">
    <mxGraphModel dx="1302" dy="688" grid="1" gridSize="10" guides="1" tooltips="1" connect="1" arrows="1" fold="1" page="1" pageScale="1" pageWidth="827" pageHeight="1169" math="0" shadow="0">
      <root>
        <mxCell id="0" />
        <mxCell id="1" parent="0" />
        <mxCell id="fVlVbXef1xFB6O-rvNTK-5" style="edgeStyle=orthogonalEdgeStyle;rounded=0;orthogonalLoop=1;jettySize=auto;html=1;" edge="1" parent="1" source="fVlVbXef1xFB6O-rvNTK-1" target="fVlVbXef1xFB6O-rvNTK-2">
          <mxGeometry relative="1" as="geometry" />
        </mxCell>
        <mxCell id="fVlVbXef1xFB6O-rvNTK-6" value="POST Request with Image" style="edgeLabel;html=1;align=center;verticalAlign=middle;resizable=0;points=[];" vertex="1" connectable="0" parent="fVlVbXef1xFB6O-rvNTK-5">
          <mxGeometry x="-0.21" y="-1" relative="1" as="geometry">
            <mxPoint as="offset" />
          </mxGeometry>
        </mxCell>
        <mxCell id="fVlVbXef1xFB6O-rvNTK-12" style="edgeStyle=orthogonalEdgeStyle;rounded=0;orthogonalLoop=1;jettySize=auto;html=1;exitX=0;exitY=0.5;exitDx=0;exitDy=0;entryX=0.5;entryY=1;entryDx=0;entryDy=0;exitPerimeter=0;" edge="1" parent="1" source="fVlVbXef1xFB6O-rvNTK-8" target="fVlVbXef1xFB6O-rvNTK-1">
          <mxGeometry relative="1" as="geometry" />
        </mxCell>
        <mxCell id="fVlVbXef1xFB6O-rvNTK-13" value="Load and show image" style="edgeLabel;html=1;align=center;verticalAlign=middle;resizable=0;points=[];" vertex="1" connectable="0" parent="fVlVbXef1xFB6O-rvNTK-12">
          <mxGeometry x="0.3909" y="1" relative="1" as="geometry">
            <mxPoint as="offset" />
          </mxGeometry>
        </mxCell>
        <mxCell id="fVlVbXef1xFB6O-rvNTK-1" value="Streamlit" style="rounded=0;whiteSpace=wrap;html=1;" vertex="1" parent="1">
          <mxGeometry x="80" y="200" width="120" height="60" as="geometry" />
        </mxCell>
        <mxCell id="fVlVbXef1xFB6O-rvNTK-9" style="edgeStyle=orthogonalEdgeStyle;rounded=0;orthogonalLoop=1;jettySize=auto;html=1;exitX=0.5;exitY=1;exitDx=0;exitDy=0;entryX=1;entryY=0.5;entryDx=0;entryDy=0;entryPerimeter=0;" edge="1" parent="1" source="fVlVbXef1xFB6O-rvNTK-2" target="fVlVbXef1xFB6O-rvNTK-8">
          <mxGeometry relative="1" as="geometry" />
        </mxCell>
        <mxCell id="fVlVbXef1xFB6O-rvNTK-11" value="&lt;div&gt;Image with bounding boxes &lt;br&gt;&lt;/div&gt;&lt;div&gt;of detected objects&lt;/div&gt;" style="edgeLabel;html=1;align=center;verticalAlign=middle;resizable=0;points=[];" vertex="1" connectable="0" parent="fVlVbXef1xFB6O-rvNTK-9">
          <mxGeometry x="0.2273" relative="1" as="geometry">
            <mxPoint x="45" y="-40" as="offset" />
          </mxGeometry>
        </mxCell>
        <mxCell id="fVlVbXef1xFB6O-rvNTK-18" style="edgeStyle=orthogonalEdgeStyle;rounded=0;orthogonalLoop=1;jettySize=auto;html=1;exitX=1;exitY=0.5;exitDx=0;exitDy=0;entryX=1;entryY=0.5;entryDx=0;entryDy=0;" edge="1" parent="1" source="fVlVbXef1xFB6O-rvNTK-2" target="fVlVbXef1xFB6O-rvNTK-17">
          <mxGeometry relative="1" as="geometry" />
        </mxCell>
        <mxCell id="fVlVbXef1xFB6O-rvNTK-2" value="FastAPI " style="rounded=0;whiteSpace=wrap;html=1;" vertex="1" parent="1">
          <mxGeometry x="400" y="200" width="120" height="60" as="geometry" />
        </mxCell>
        <mxCell id="fVlVbXef1xFB6O-rvNTK-8" value="File Storage" style="shape=cylinder3;whiteSpace=wrap;html=1;boundedLbl=1;backgroundOutline=1;size=15;" vertex="1" parent="1">
          <mxGeometry x="270" y="310" width="60" height="80" as="geometry" />
        </mxCell>
        <mxCell id="fVlVbXef1xFB6O-rvNTK-19" style="edgeStyle=orthogonalEdgeStyle;rounded=0;orthogonalLoop=1;jettySize=auto;html=1;exitX=0;exitY=0.5;exitDx=0;exitDy=0;entryX=0.5;entryY=0;entryDx=0;entryDy=0;" edge="1" parent="1" source="fVlVbXef1xFB6O-rvNTK-17" target="fVlVbXef1xFB6O-rvNTK-2">
          <mxGeometry relative="1" as="geometry" />
        </mxCell>
        <mxCell id="fVlVbXef1xFB6O-rvNTK-17" value="YOLO v3" style="sketch=0;html=1;verticalAlign=top;labelPosition=center;verticalLabelPosition=bottom;align=center;spacingTop=-6;fontSize=11;fontStyle=1;fontColor=#999999;shape=image;aspect=fixed;imageAspect=0;image=data:image/svg+xml,PHN2ZyB4bWxucz0iaHR0cDovL3d3dy53My5vcmcvMjAwMC9zdmciIHhtbG5zOnY9Imh0dHBzOi8vdmVjdGEuaW8vbmFubyIgd2lkdGg9IjIwIiBoZWlnaHQ9IjE3LjUiIGZpbGwtcnVsZT0iZXZlbm9kZCIgdmlld0JveD0iMCAwIDIwIDE3LjUiPiYjeGE7CTxzdHlsZSB0eXBlPSJ0ZXh0L2NzcyI+JiN4YTsJLnN0MHtmaWxsOiM0Mjg1ZjQ7fSYjeGE7CS5zdDF7ZmlsbDojNjY5ZGY2O30mI3hhOwk8L3N0eWxlPiYjeGE7CTxwYXRoIGNsYXNzPSJzdDAiIGQ9Ik0xOC45MSAxMC42M0wyMCA4Ljc1IDE3LjgyIDVoLTMuMDdsLTEuMDYtMS44NkgxMi41VjEuODhoMS45NGwxLjA2IDEuODdoMS41OUwxNC45IDBoLTQuMjd2NWgxLjczbC43MyAxLjI1aC0yLjQ2djIuNWgyLjI2bDEuMDUtMS44N2gyLjgxbC43MiAxLjI1aC0yLjhMMTMuNjIgMTBoLTIuOTl2NC4zOGgzLjRsLS43MiAxLjI1aC0yLjY4djEuODdoNC4yN2wzLjI4LTUuNjJoLTIuMDlsLS43MyAxLjI1SDEyLjV2LTEuMjVoMi4xNGwuNzQtMS4yNXoiLz4mI3hhOwk8cGF0aCBjbGFzcz0ic3QxIiBkPSJNMS4wOSAxMC42M0wwIDguNzUgMi4xOCA1aDMuMDdsMS4wNi0xLjg2SDcuNVYxLjg4SDUuNTZMNC41IDMuNzVIMi45MUw1LjEgMGg0LjI4djVINy42NGwtLjczIDEuMjVoMi40N3YyLjVINy4xMUw2LjA2IDYuODhIMy4yNWwtLjcyIDEuMjVoMi44TDYuMzggMTBoM3Y0LjM4SDUuOTdsLjcyIDEuMjVoMi42OXYxLjg3SDUuMWwtMy4yOC01LjYyaDIuMDlsLjczIDEuMjVINy41di0xLjI1SDUuMzZsLS43NC0xLjI1eiIvPiYjeGE7PC9zdmc+;" vertex="1" parent="1">
          <mxGeometry x="520" y="140" width="42" height="38" as="geometry" />
        </mxCell>
      </root>
    </mxGraphModel>
  </diagram>
</mxfile>
